<svg class="svg-layer" xmlns="http://www.w3.org/2000/svg" width="23" height="23" viewBox="0 0 23 23" fill="none">
  <path
    d="M15.0966 15.3736C14.7748 15.1573 14.3428 15.1503 14.0135 15.3569C13.2924 15.8105 12.4253 16.0757 11.4941 16.0757C10.563 16.0757 9.69439 15.8105 8.97478 15.3569C8.64701 15.1503 8.21346 15.1573 7.89164 15.3736C7.61453 15.5593 7.3538 15.7658 7.11393 15.9919C6.24385 16.8071 5.63151 17.8608 5.39909 19.0389C5.29033 19.5888 5.74027 20.0954 6.33622 20.0954H16.6506C17.245 20.0954 17.6965 19.5916 17.5892 19.043C17.2942 17.537 16.3764 16.2334 15.0966 15.3736Z" />
  <path fill-rule="evenodd" clip-rule="evenodd" class="need-active"
    d="M5.19141 8.90462C5.19141 5.4306 8.01947 2.60254 11.4935 2.60254C14.9675 2.60254 17.7956 5.4306 17.7956 8.90462C17.7956 12.3786 14.9675 15.2067 11.4935 15.2067C8.01947 15.2067 5.19141 12.3786 5.19141 8.90462ZM14.4412 11.0252C14.4852 10.7588 14.2623 10.5385 13.9923 10.5385H11.4935L8.99472 10.5385C8.72472 10.5385 8.50175 10.7588 8.54574 11.0252C8.64677 11.6371 8.93666 12.2069 9.3809 12.6511C9.94119 13.2114 10.7011 13.5261 11.4935 13.5261C12.2859 13.5261 13.0458 13.2114 13.6061 12.6511C14.0503 12.2069 14.3402 11.6371 14.4412 11.0252Z" />
</svg>
