<svg class="svg-layer" xmlns="http://www.w3.org/2000/svg" width="23" height="23" viewBox="0 0 23 23" fill="none">
  <path fill-rule="evenodd" clip-rule="evenodd"
    d="M10.4014 1.76475C9.76184 1.54882 9.06834 1.89223 8.85242 2.53178L8.28711 4.20613H15.1605C16.5106 4.20613 17.605 5.30055 17.605 6.65058V18.6368L21.5904 6.83247C21.8064 6.19292 21.463 5.49942 20.8234 5.28349L10.4014 1.76475Z">
  </path>
  <path fill-rule="evenodd" clip-rule="evenodd"
    d="M4.65056 5.42871C3.70554 5.42871 2.93945 6.1948 2.93945 7.13982V19.6065C2.93945 20.5515 3.70554 21.3176 4.65056 21.3176H14.6728C15.6178 21.3176 16.3839 20.5515 16.3839 19.6065V7.13982C16.3839 6.1948 15.6178 5.42871 14.6728 5.42871H4.65056ZM11.9953 12.0402C11.9953 13.4209 10.876 14.5402 9.49528 14.5402C8.11457 14.5402 6.99528 13.4209 6.99528 12.0402C6.99528 10.6595 8.11457 9.5402 9.49528 9.5402C10.876 9.5402 11.9953 10.6595 11.9953 12.0402ZM5.3839 17.6509C5.3839 16.9759 5.9311 16.4287 6.60612 16.4287H12.7172C13.3922 16.4287 13.9395 16.9759 13.9395 17.6509C13.9395 18.3259 13.3922 18.8732 12.7172 18.8732H6.60612C5.93111 18.8732 5.3839 18.3259 5.3839 17.6509Z"
    class="need-active"></path>
</svg>
