<svg class="svg-layer" xmlns="http://www.w3.org/2000/svg" width="22" height="22" viewBox="0 0 22 22" fill="none">
  <path fill-rule="evenodd" clip-rule="evenodd" class="need-active"
    d="M11.5167 3.87658C11.1498 4.24643 10.9643 4.82507 10.5934 5.98237L8.13517 13.6524C7.76429 14.8097 7.57882 15.3883 7.66236 15.9026C7.73586 16.3549 7.95065 16.7723 8.27602 17.0951C8.6458 17.4619 9.2245 17.6474 10.3818 18.0183L12.8459 18.808C14.0032 19.179 14.5818 19.3644 15.096 19.2808C15.5484 19.2073 15.9658 18.9925 16.2885 18.6672C16.6554 18.2974 16.8409 17.7188 17.2118 16.5614L19.67 8.89144C20.0409 7.7341 20.2264 7.15547 20.1428 6.64126C20.0693 6.18893 19.8546 5.7715 19.5292 5.44877C19.1593 5.08188 18.5807 4.89642 17.4234 4.52551L14.9593 3.73576C13.802 3.36486 13.2233 3.1794 12.7091 3.26295C12.2568 3.33645 11.8394 3.55126 11.5167 3.87658ZM13.1099 13.5457L15.6666 12.2877C15.6694 12.2863 15.6721 12.285 15.6749 12.2836C15.6764 12.2829 15.6779 12.2822 15.6794 12.2814C16.3889 11.9323 16.6811 11.0741 16.332 10.3646C15.9829 9.6551 15.1248 9.363 14.4152 9.71204C14.0662 9.00253 13.2077 8.71036 12.4982 9.05947C11.7888 9.40851 11.4966 10.2667 11.8456 10.9762L13.1099 13.5457Z">
  </path>
  <path
    d="M9.36679 5.24494C8.44257 8.12875 7.48947 11.0051 6.5819 13.8947C6.41418 14.4287 6.33032 14.6956 6.18568 14.7867C6.06015 14.8658 5.90448 14.8802 5.76657 14.8255C5.60768 14.7625 5.47701 14.5169 5.21568 14.0257C4.37118 12.4382 3.53952 10.8436 2.69827 9.25457C2.12965 8.18056 1.84534 7.64355 1.83718 7.1226C1.83 6.66444 1.96806 6.21574 2.23157 5.84084C2.53114 5.41463 3.06816 5.13032 4.14221 4.5617L5.93725 3.61136C7.01131 3.04273 7.54832 2.75842 8.0692 2.75027C8.52743 2.74309 8.97613 2.88114 9.35104 3.14465C9.39127 3.17296 9.43033 3.20339 9.46836 3.2362C9.56502 3.31938 9.61331 3.36097 9.68051 3.48217C9.72763 3.56714 9.77387 3.73422 9.77724 3.83131C9.78193 3.96981 9.74478 4.08218 9.6704 4.30691C9.57733 4.58811 9.4776 4.89932 9.36679 5.24494Z">
  </path>
</svg>
