<svg class="svg-layer" xmlns="http://www.w3.org/2000/svg" width="25" height="24" viewBox="0 0 25 24" fill="none">
  <path
    d="M19.8375 17.1821V11.4116L16.2195 15.1616L12.666 18.1894L16.713 19.4696C17.7705 19.8041 18.2985 19.9714 18.7185 19.8611C19.0859 19.7645 19.403 19.5322 19.6058 19.2109C19.8368 18.8434 19.8368 18.2899 19.8368 17.1814L19.8375 17.1821Z">
  </path>
  <path fill-rule="evenodd" clip-rule="evenodd" class="need-active"
    d="M5.64577 5.9985C5.15527 6.9615 5.15527 8.2215 5.15527 10.7415V11.0288C5.15527 13.5488 5.15527 14.8088 5.64577 15.7718C6.0772 16.6184 6.76558 17.3068 7.61227 17.7383C8.57527 18.2288 9.83527 18.2288 12.3553 18.2288H12.6433C15.1633 18.2288 16.4233 18.2288 17.3863 17.7383C18.233 17.3068 18.9214 16.6184 19.3528 15.7718C19.8433 14.8095 19.8433 13.5495 19.8433 11.0288V10.7415C19.8433 8.2215 19.8433 6.9615 19.3528 5.9985C18.9214 5.15181 18.233 4.46343 17.3863 4.032C16.4233 3.5415 15.1633 3.5415 12.6433 3.5415H12.3553C9.83527 3.5415 8.57527 3.5415 7.61227 4.032C6.76558 4.46343 6.0772 5.15181 5.64577 5.9985ZM10.3528 11.8628H14.7028C14.9525 11.8628 15.077 11.8628 15.1888 11.9355C15.272 11.9895 15.3598 12.1148 15.3823 12.2123C15.4123 12.342 15.3778 12.435 15.3095 12.6195C14.9945 13.4775 14.213 14.466 12.5923 14.466C10.9955 14.466 10.145 13.5075 9.76027 12.6585C9.67327 12.4673 9.63052 12.372 9.65377 12.2348C9.68108 12.1177 9.74815 12.0138 9.84352 11.9408C9.95827 11.8628 10.0895 11.8628 10.3528 11.8628Z">
  </path>
</svg>
