<svg  class="svg-layer" xmlns="http://www.w3.org/2000/svg" width="22" height="22" viewBox="0 0 22 22"
  fill="none">
  <path 
    d="M19.1155 7.58523C19.1412 7.63927 19.1694 7.70568 19.1999 7.78323L19.299 8.05266L19.4128 8.39277C19.5621 8.83407 19.4538 9.34681 19.1681 9.79431C18.149 11.3914 16.6698 13.2379 15.0774 14.9814C13.1131 17.1315 11.1635 18.7801 9.27446 19.9116C8.70556 20.2523 7.9568 20.2462 7.38301 19.9277L7.24352 19.8414L6.58711 19.3821L6.04389 18.9936C5.82 18.8322 5.76433 18.5138 5.92032 18.2816C6.05857 18.0756 6.31673 18.0073 6.52961 18.1078L6.60669 18.1531L7.29735 18.646L7.78733 18.9873C8.06508 19.1767 8.49326 19.1978 8.78084 19.0252C11.8621 17.1793 15.3686 13.6575 18.4059 9.23633C18.4499 9.17239 18.4805 9.02341 18.483 8.90606L18.4793 8.82603L18.461 8.74408L18.3019 8.30772C18.2346 8.02468 18.2634 7.82792 18.4714 7.60448C18.7258 7.33079 18.9871 7.31154 19.1161 7.58399L19.1155 7.58523ZM6.0133 14.6934L6.17725 14.7996L6.32345 14.9063C6.54245 15.0745 6.58773 15.3954 6.425 15.622C6.26228 15.8485 5.95335 15.8957 5.73496 15.7275C4.94643 15.1204 4.15178 15.2073 3.21582 16.0173C3.09531 16.1216 2.93626 16.1589 2.78516 16.1216L2.69584 16.0906L2.61816 16.0453L1.35859 15.1391C1.13469 14.9777 1.07902 14.6593 1.23502 14.4272C1.3543 14.249 1.56658 14.1714 1.76172 14.2235L1.84798 14.2558L1.92139 14.2993L2.85673 15.0124L2.90078 14.9783C3.96398 14.1956 5.02718 14.0957 6.0133 14.6934Z">
  </path>
  <path 
    d="M12.1052 1.95615L13.1507 2.66002C13.106 2.71154 13.0644 2.7674 13.0259 2.82636C12.416 3.7543 12.482 5.00065 13.615 5.8361C14.7479 6.67155 16.1397 6.50645 16.826 5.66354C16.9196 5.54872 16.9912 5.42086 17.0425 5.28369L18.1455 6.02727C18.4752 6.25134 18.5633 6.70383 18.3419 7.03836C18.337 7.04585 18.3315 7.05328 18.3266 7.0607C16.5654 9.50504 14.8201 11.6128 13.0895 13.3831C11.4103 15.1018 9.78489 16.4512 8.21457 17.4325C7.89523 17.6329 7.48657 17.6106 7.18992 17.3766L6.16401 16.5604C6.25271 16.5015 6.3304 16.4369 6.39463 16.3674C6.97026 15.748 7.08954 14.3626 5.92115 13.4396C4.75273 12.5166 3.45768 12.6985 2.62878 13.3111C2.53212 13.3825 2.4526 13.4663 2.38959 13.5606L1.37104 12.7518C1.13675 12.5657 1.09637 12.2218 1.28051 11.984C1.31476 11.9393 1.35636 11.9009 1.40285 11.8692C3.41363 10.4975 5.20664 9.01279 6.78187 7.41449C8.35709 5.81624 9.80201 4.0603 11.1173 2.14609C11.3406 1.82023 11.7797 1.73581 12.1052 1.95615ZM7.28534 11.8475C6.97336 11.9444 6.80083 12.29 6.89993 12.619C6.999 12.948 7.33244 13.1367 7.64504 13.0398C7.95703 12.943 8.12952 12.5973 8.03046 12.2683C7.93132 11.9393 7.59795 11.7507 7.28534 11.8475ZM10.9393 7.6305L10.8799 7.66219L9.77753 8.42938L8.4972 7.9396C8.43292 7.91478 8.36197 7.91416 8.29714 7.93775C8.16748 7.98491 8.09096 8.11526 8.10567 8.2487L8.12093 8.31511L8.56629 9.58383L7.76494 10.6254C7.72699 10.6744 7.70561 10.7339 7.70376 10.7966C7.69888 10.9363 7.79059 11.0567 7.91784 11.0921L7.98453 11.102L9.37747 11.153L10.1923 12.3087C10.229 12.3615 10.2822 12.3999 10.3428 12.4191C10.4743 12.4607 10.6132 12.4024 10.6799 12.2869L10.7068 12.2249L11.0903 10.9692L12.3591 10.6402C12.4245 10.6235 12.482 10.5838 12.5218 10.5285C12.6032 10.4156 12.594 10.2641 12.5077 10.1623L12.4582 10.1164L11.3381 9.28655L11.3368 7.90736C11.3368 7.84775 11.3191 7.79007 11.2861 7.74098C11.2084 7.62555 11.064 7.58396 10.9411 7.63236L10.9393 7.6305ZM12.4245 6.63679C12.1126 6.73362 11.9401 7.07933 12.0391 7.4083C12.1383 7.73727 12.4716 7.92599 12.7842 7.82912C13.0962 7.73232 13.2687 7.38658 13.1697 7.05761C13.0705 6.72865 12.7371 6.53996 12.4245 6.63679Z"
    class="need-active"></path>
</svg>
