<svg class="svg-layer" xmlns="http://www.w3.org/2000/svg" width="23" height="23" viewBox="0 0 23 23" fill="none">
  <path 
    d="M17.9889 2.99023H2.23273C1.94563 2.99023 1.71289 3.22304 1.71289 3.51021V5.50087C1.71289 5.78804 1.94563 6.02085 2.23273 6.02085H17.9889C18.276 6.02085 18.5087 5.78804 18.5087 5.50087V3.51021C18.5087 3.22304 18.276 2.99023 17.9889 2.99023Z"
    class="need-active"></path>
  <path 
    d="M13.7743 10.1396H2.78937C2.50227 10.1396 2.26953 10.3725 2.26953 10.6596V12.6503C2.26953 12.9375 2.50227 13.1703 2.78937 13.1703H13.7743C14.0614 13.1703 14.2942 12.9375 14.2942 12.6503V10.6596C14.2942 10.3725 14.0614 10.1396 13.7743 10.1396Z"
    class="need-active"></path>
  <path 
    d="M17.9889 17.2891H2.23273C1.94563 17.2891 1.71289 17.5219 1.71289 17.809V19.7997C1.71289 20.0869 1.94563 20.3197 2.23273 20.3197H17.9889C18.276 20.3197 18.5087 20.0869 18.5087 19.7997V17.809C18.5087 17.5219 18.276 17.2891 17.9889 17.2891Z"
    class="need-active"></path>
  <path 
    d="M21.2197 10.9047C21.3506 10.981 21.4592 11.0903 21.5347 11.2216C21.6102 11.353 21.6499 11.5019 21.6499 11.6534C21.6499 11.8049 21.6102 11.9538 21.5347 12.0851C21.4592 12.2165 21.3506 12.3258 21.2197 12.4021L17.5993 14.5095C17.4676 14.5861 17.3181 14.6267 17.1657 14.6271C17.0134 14.6275 16.8636 14.5877 16.7316 14.5118C16.5995 14.4359 16.4898 14.3265 16.4134 14.1946C16.3371 14.0628 16.2969 13.9132 16.2969 13.7608V9.54684C16.2968 9.39443 16.3369 9.24468 16.4131 9.11271C16.4894 8.98074 16.5991 8.87121 16.7312 8.79519C16.8633 8.71916 17.0131 8.67932 17.1655 8.67969C17.3179 8.68006 17.4675 8.72062 17.5993 8.79729L21.2197 10.9047Z">
  </path>
</svg>
