<svg class="svg-layer" xmlns="http://www.w3.org/2000/svg" width="25" height="24" viewBox="0 0 25 24" fill="none">
  <path 
    d="M14.4859 18.5556C15.6688 18.1751 16.3192 16.9076 15.9387 15.7247C15.5581 14.5417 14.2906 13.8913 13.1077 14.2719C11.9248 14.6524 11.2743 15.9199 11.6549 17.1028C12.0355 18.2858 13.3029 18.9362 14.4859 18.5556Z" />
  <path  fill-rule="evenodd" clip-rule="evenodd" class="need-active"
    d="M9.5988 3.32039L9.75743 3.26936C12.1868 2.48778 14.8261 3.56903 16.0088 5.83042L16.7211 7.19217C17.6078 8.88765 18.6901 10.4735 19.9457 11.9172L20.3433 12.3745C20.887 12.9996 20.8209 13.947 20.1958 14.4907C20.0427 14.6238 19.8641 14.7246 19.6709 14.7867L8.21453 18.4724C7.42591 18.7261 6.58094 18.2925 6.32722 17.5039C6.2631 17.3045 6.24141 17.094 6.26357 16.8858L6.32601 16.2989C6.5295 14.3864 6.49608 12.4561 6.22652 10.5519L6.01337 9.04611C5.65569 6.51928 7.16941 4.10196 9.5988 3.32039Z" />
</svg>
