<svg class="svg-layer" xmlns="http://www.w3.org/2000/svg" width="25" height="24" viewBox="0 0 25 24" fill="none">
  <g fill="none" fill-rule="evenodd">
    <path
      d="m12.593 23.258l-.011.002l-.071.035l-.02.004l-.014-.004l-.071-.035q-.016-.005-.024.005l-.004.01l-.017.428l.005.02l.01.013l.104.074l.015.004l.012-.004l.104-.074l.012-.016l.004-.017l-.017-.427q-.004-.016-.017-.018m.265-.113l-.013.002l-.185.093l-.01.01l-.003.011l.018.43l.005.012l.008.007l.201.093q.019.005.029-.008l.004-.014l-.034-.614q-.005-.018-.02-.022m-.715.002a.02.02 0 0 0-.027.006l-.006.014l-.034.614q.001.018.017.024l.015-.002l.201-.093l.01-.008l.004-.011l.017-.43l-.003-.012l-.01-.01z"
      class="need-active" />
    <path fill="currentColor"
      d="M5 10a5 5 0 1 1 10 0a5 5 0 0 1-10 0m5-7a7 7 0 1 0 4.192 12.606l5.1 5.101a1 1 0 0 0 1.415-1.414l-5.1-5.1A7 7 0 0 0 10 3"
      class="need-active" />
  </g>
  <path
    d="M23.7506 4.7869C23.1432 5.03857 22.6583 5.26507 22.2959 5.46641C21.9368 5.66775 21.6567 5.8674 21.4553 6.06539C21.2573 6.26337 21.0577 6.54188 20.8563 6.90093C20.655 7.25998 20.4251 7.75158 20.1668 8.37572H19.9604C19.6987 7.75158 19.4671 7.25998 19.2658 6.90093C19.0644 6.54188 18.8665 6.26337 18.6718 6.06539C18.4705 5.8674 18.1886 5.66775 17.8262 5.46641C17.4672 5.26507 16.9823 5.03857 16.3716 4.7869V4.58053C16.9856 4.32886 17.4722 4.10235 17.8313 3.90102C18.1937 3.69968 18.4739 3.50002 18.6718 3.30204C18.8665 3.10406 19.0644 2.82554 19.2658 2.46649C19.4671 2.10744 19.6987 1.61584 19.9604 0.991699H20.1668C20.4251 1.61584 20.655 2.10744 20.8563 2.46649C21.0577 2.82554 21.2573 3.10406 21.4553 3.30204C21.6499 3.50002 21.9268 3.69968 22.2858 3.90102C22.6482 4.10235 23.1365 4.32886 23.7506 4.58053V4.7869Z">
  </path>
</svg>
