<svg class="svg-layer" xmlns="http://www.w3.org/2000/svg" width="22" height="22" viewBox="0 0 22 22" fill="none">
  <path fill-rule="evenodd" clip-rule="evenodd"
    d="M13.3892 5.87607C12.9709 5.87607 11.672 5.61189 9.80074 4.59923C9.4155 4.39008 8.41386 4.07087 7.25806 4.07087C6.97188 4.07087 6.69668 4.09289 6.43255 4.12591C7.74243 3.25634 9.30545 2.75 11.0006 2.75H11.0116C11.3638 2.88209 12.7507 3.5095 13.5652 5.68894C13.5762 5.71096 13.5873 5.73297 13.5873 5.75499C13.6093 5.79901 13.6093 5.83204 13.6093 5.84305C13.5873 5.85405 13.5212 5.87607 13.3892 5.87607ZM14.2371 10.8734C14.3362 10.8734 14.4242 10.8955 14.4572 11.0936L14.4462 11.0826C14.5123 11.4789 14.4462 13.6363 13.8629 15.4966C13.1584 17.4338 12.2118 18.6666 11.001 19.25C9.18472 19.25 7.50066 18.6666 6.13574 17.665C6.76315 17.3127 7.73182 16.5422 9.23982 14.9462L9.30282 14.8772C9.40587 14.7645 9.53737 14.6207 9.69107 14.4398L9.70387 14.4255C10.5654 13.4535 12.152 11.6634 13.4225 11.1267C13.4589 11.1194 13.5 11.1025 13.5491 11.0824C13.5743 11.0721 13.6017 11.0608 13.6317 11.0496L13.6791 11.0305C13.8426 10.9643 14.0671 10.8734 14.2371 10.8734ZM17.0661 11.9081C16.6148 11.1155 16.2186 10.8734 15.6902 10.7193C15.6352 10.6972 15.5801 10.6972 15.5251 10.6972C15.2719 10.6972 15.2499 10.9834 15.2499 10.9945C15.1197 14.4772 14.8612 15.404 14.6746 16.0728L14.6665 16.1018L14.6335 16.2229C14.3584 17.1696 13.918 18.1162 13.3787 18.9087C14.9637 18.4353 16.3507 17.4887 17.3744 16.2449C17.9027 14.1976 17.4404 12.5685 17.0661 11.9081ZM14.6557 5.84315H14.6117V5.83215C14.4906 5.82114 14.3805 5.81013 14.2484 5.50193C14.1163 5.1497 13.588 3.78479 12.7735 2.92623C14.0282 3.20141 15.184 3.76278 16.1526 4.54429V4.59933C16.1526 4.59981 16.1527 4.60099 16.1529 4.60283C16.155 4.64303 16.1741 4.99905 15.9215 5.31481C15.6683 5.62301 15.2391 5.79913 14.6557 5.84315Z">
  </path>
  <path fill-rule="evenodd" clip-rule="evenodd"
    d="M7.84047 8.44067H7.8075V8.45165C6.81685 8.6938 5.81516 9.0241 5.00063 9.38728C3.98796 9.83861 3.23947 10.3339 2.74414 10.8843C2.77716 8.86994 3.51465 7.04272 4.73646 5.63382C5.18775 5.4467 6.1674 5.10547 7.35617 5.10547C7.92854 5.10547 8.47893 5.19353 9.00726 5.34763C9.11738 5.38066 9.46958 5.52375 9.84383 5.67785C10.6254 6.00807 11.605 6.41533 12.0893 6.4924C12.2765 6.53644 12.9479 6.67953 13.4983 6.67953C13.6524 6.67953 13.7734 6.66854 13.8835 6.64649C13.9495 6.87765 14.0596 7.29593 14.1697 7.78023C13.2561 7.79122 9.76675 7.95637 7.84047 8.44067ZM16.4923 5.99707C16.6904 5.78794 16.8225 5.52376 16.8775 5.21555C17.7801 6.12916 18.4625 7.24091 18.8588 8.47371C18.2534 8.16547 17.1087 7.81328 14.9732 7.78023C14.8522 7.29593 14.7531 6.94373 14.6541 6.62451C15.2374 6.61352 16.0079 6.50339 16.4923 5.99707ZM7.56505 9.48619C4.73619 10.2457 3.43733 11.6436 2.87596 12.5022C3.18417 14.1643 3.97669 15.6503 5.12145 16.8061C6.36527 16.2887 8.75382 14.2303 9.12807 13.8451C9.54636 13.3828 11.1974 11.6546 11.5057 11.3465C12.3202 10.4878 13.3439 9.97057 14.4446 9.84945C14.4152 9.20189 14.3507 8.77292 14.3215 8.57826C14.3179 8.55455 14.3149 8.5343 14.3125 8.51759C10.5591 8.58361 7.5981 9.4752 7.56505 9.48619ZM19.1563 9.71735C19.2224 10.1356 19.2554 10.5649 19.2554 11.0052V10.9942C19.2554 12.4362 18.8811 13.7901 18.2317 14.9679C18.3418 14.0322 18.3968 12.5352 17.8795 11.5776L17.8575 11.5446C17.6373 11.1263 16.9548 9.84945 15.2047 9.81641V9.68431L15.2035 9.66007C15.1819 9.23847 15.1598 8.80912 15.1166 8.51759H15.3148C16.0963 8.51759 18.0006 8.63863 19.1563 9.71735Z"
    class="need-active"></path>
</svg>
