<svg class="icon" viewBox="0 0 1024 1024" version="1.1" xmlns="http://www.w3.org/2000/svg"
  width="32" height="32">
  <path
    d="M286.654915 924.316203c32.629153-15.281898 66.386441-19.577492 101.271865-12.873762 37.232814 7.150644 69.987797 25.725831 98.251932 55.72122-35.735864 17.538169-73.081492 22.562712-112.036881 15.082305-36.968136-7.098576-67.098034-23.877424-90.394034-50.327864-19.768407 8.864542-37.692746 19.577492-53.773017 32.138847-20.861831 16.292881-39.224407 34.212881-55.092068 53.755661-2.855051 3.397424-5.914034 3.601356-9.176949 0.607458-3.262915-2.989559-3.805288-5.848949-1.614102-8.569492 18.657627-19.833492 38.44339-36.846644 59.365966-51.035118 17.781153-12.062373 38.009492-23.187525 60.676339-33.375458z m118.345763-45.142779c34.360407-18.505763 70.217763-24.510915 107.572068-18.00678 37.358644 6.499797 70.430373 24.497898 99.215186 53.998644-35.423458 18.158644-72.677966 23.838373-111.759186 17.034848-39.076881-6.803525-70.755797-24.476203-95.028068-53.022373z m55.808-135.146305c-7.311186 42.205288-25.439458 76.865085-54.393492 103.983728-28.949695 27.118644-67.731525 43.411525-116.336813 48.882984 11.680542-46.674441 31.362169-82.974373 59.036203-108.899797 27.674034-25.921085 64.906847-40.578169 111.694102-43.966915z m167.25478 48.436067c37.766508-3.384407 74.370169 5.436746 109.806644 26.480814-29.518102 26.71078-64.030373 41.836475-103.541153 45.381424-39.506441 3.544949-74.678237-5.328271-105.51539-26.624 28.398644-26.771525 61.48339-41.849492 99.249899-45.238238z m-51.41695-181.456271c14.769898 40.200678 16.401356 79.286237 4.885695 117.243661-11.515661 37.961763-36.95078 71.463051-76.309695 100.508204-13.220881-46.266576-14.331661-87.543322-3.323661-123.830238 11.003661-36.286915 35.922441-67.592678 74.747661-93.925966z m112.167051 80.791865c35.826983-12.426847 73.480678-12.71322 112.956746-0.867797-22.180881 33.054373-52.007051 56.081356-89.487186 69.07661-37.480136 12.999593-73.754034 12.895458-108.821695-0.303729 21.07878-32.846102 49.529492-55.482576 85.352135-67.905084z m-29.622237-204.396475c20.584136 34.069695 28.849898 70.838237 24.78861 110.296949-4.056949 39.458712-21.469288 72.083525-52.232678 97.870102-20.861831-32.984949-29.35322-68.338983-25.46983-106.053424 3.879051-37.723119 21.517017-71.758102 52.913898-102.113627z m198.812203 56.497898c-10.877831 38.291525-32.134508 69.410712-63.761356 93.353221-31.626847 23.942508-66.156475 35.058983-103.588881 33.340745 9.892881-37.749153 29.960678-68.074305 60.190373-90.958101 30.234034-22.888136 65.952542-34.798644 107.159864-35.735865z m-8.356881-139.953898c0.099797 39.810169-11.754305 75.580746-35.557966 107.311729-23.799322 31.735322-53.933559 51.937627-90.385356 60.602576-0.893831-39.020475 10.036068-73.693288 32.789695-104.027118s53.80339-51.629559 93.157966-63.887187zM631.235254 308.31078c34.169492 20.419254 58.728136 49.000136 73.667254 85.746983 14.943458 36.746847 16.739797 72.977356 5.393356 108.691525-33.904814-19.330169-57.999186-46.557288-72.278779-81.685695-14.283932-35.128407-16.544542-72.712678-6.781831-112.752813z m209.993763-50.132611c5.640678 39.406644-1.123797 76.478915-20.276068 111.216814-19.15661 34.737898-46.179797 58.932068-81.073898 72.591186-6.317559-38.512814-0.316746-74.370169 17.993763-107.580745 18.310508-33.201898 46.093017-58.610983 83.356203-76.227255z m-73.068475-112.856949c14.999864 36.872678 17.408 74.478644 7.228746 112.817899-10.183593 38.339254-30.55078 68.356339-61.105898 90.046915-15.44678-35.84-18.301831-72.083525-8.565153-108.734915 9.732339-36.647051 30.546441-68.022237 62.437966-94.129899z m-240.696406 19.395255c39.788475 1.293017 75.125153 14.383729 106.005695 39.280813 30.884881 24.897085 50.019797 55.712542 57.409084 92.450712-39.024814-0.472949-73.298441-12.604746-102.816542-36.404068-29.522441-23.794983-49.724746-55.573695-60.598237-95.327457z m148.371525-145.854916c24.584678 31.310102 37.267525 66.794305 38.048542 106.45261 0.781017 39.658305-10.526373 74.131525-33.91783 103.402306-24.727864-30.194983-37.46278-64.247322-38.204746-102.161356-0.746305-37.909695 10.608814-73.806102 34.074034-107.69356zM509.52678 0.160542c37.888 12.209898 68.247864 34.538305 91.075254 66.980882 22.823051 32.442576 32.720271 67.341017 29.700339 104.690983-37.384678-11.207593-66.98522-32.316746-88.801627-63.331797C519.68 77.494237 509.023458 41.376542 509.52678 0.160542z"
    fill="currentColor"></path>
</svg>
